<?xml version="1.0" encoding="UTF-8"?>
<svg id="Layer_1" data-name="Layer 1" xmlns="http://www.w3.org/2000/svg" viewBox="0 0 349.05 47.67">
  <defs>
    <style>
      .cls-3{fill:#fff}
    </style>
  </defs>
  <path d="M28.28 12.38l-26.73 12v2.56l26.73 12V36.1L4.66 25.71l23.62-10.49z" stroke="#fff" stroke-miterlimit="10" stroke-width="3"/>
  <path d="M38.28 14.25h2.49V9.84a19.11 19.11 0 0 1 8.45-1.87c3.88 0 6.37.9 8.38 3a7.77 7.77 0 0 1 2.21 5.47 7.94 7.94 0 0 1-3.12 6.37c-2 1.59-3.39 2.15-8.59 3.39l-1 .21v6h2.43v-4.16c9-2.22 12.95-5.75 12.95-11.63 0-6.65-5.33-11.15-13.23-11.15-3.39 0-5.19.41-10.94 2.28zm9.91 24.24c-2.56 0-4.5 1.66-4.5 3.88s1.94 3.81 4.43 3.81 4.43-1.73 4.43-3.81a4.13 4.13 0 0 0-4.37-3.88z" fill="#fff" stroke="#fff" stroke-miterlimit="10" stroke-width="3"/>
  <path class="cls-3" d="M103.52 42.35H83.44V8.93h8.72V5.64H72.81v3.29h7.06v33.42h-7.06v3.28h34.29l.81-17.69h-3.41l-.98 14.41z"/>
  <path class="cls-3" d="M408.55 291.09h5.25v-3.29H403l-9.65 24.2-9.56-24.15h-11v3.29H378l-1.21 33.42h-7.14l-15-36.71h-15.27v3.29h10.21l-13.79 33.42H332v3.28h14.57v-3.28h-7.37l4.15-9.94h18.45l4.09 9.94h-7.19v3.28h28.84v-3.28h-7.67l1.23-33.23c0-.28.05-.35.05-.33s.09 0 .16.17L391.9 318h2.41l10.59-26.51c0-.08.11-.29.17-.43a.87.87 0 0 1 0 .28l1.16 33.21h-7.53v3.28h15.82v-3.28h-4.87zm-47.87 20.4h-16l8-19.58zM443.08 288.73a27.48 27.48 0 0 0-8.32-.92h-16.22v3.29h5.75v33.42h-5.75v3.28h19.63v-3.28h-10.32v-12.44h3.93c7.3 0 8.81-.14 10.93-.71a11.28 11.28 0 0 0 8.68-11.15 12.22 12.22 0 0 0-8.31-11.49zm-11.23 20.06h-4v-17.7h6.91a23.42 23.42 0 0 1 6.31.54 8.58 8.58 0 0 1 6.62 8.45 8 8 0 0 1-5.61 7.91c-1.89.6-4.38.8-10.23.8zM488.78 282.16L472 283.67l-.63 5.38 11.84-.92v11.41l-.53-.49a17.86 17.86 0 0 0-10.78-3.87c-9.46 0-16.6 7.43-16.6 17.29s7.17 17.36 16.67 17.36a16 16 0 0 0 11.24-4.38v3.34h11.52v-5.28h-6zM472 324.41c-6.07 0-10.83-5.3-10.83-12.08 0-6.58 4.76-11.73 10.83-11.73 6.29 0 11 5.22 11 12.14.08 6.44-4.87 11.67-11 11.67zM527.13 320.41c-5.57 2.72-9.88 3.94-14 3.94-6.83 0-11.44-3.74-12.34-9.88h29l.1-1.4c.07-1 .14-2.06.14-2.6 0-8.71-7.37-15.28-17.15-15.28-10.34 0-17.84 7.33-17.84 17.43 0 10.3 7.39 17.22 18.4 17.22 4.69 0 10.9-1.74 16.22-4.54l1.33-.7-2.57-4.83zm-14.23-19.73c6.12 0 10.55 3.42 11.28 8.5h-22.94c1.45-5.29 5.76-8.5 11.66-8.5z" transform="translate(-220.72 -282.16)"/>
  <path class="cls-3" d="M332.69 14.06v5.29h4.97l-9.22 19.92-9.16-19.92h5.26v-5.29h-17.13v5.29h5.67l12.89 27.28h4.6l12.88-27.28h5.61v-5.29h-16.37z"/>
</svg>
